<svg xmlns="http://www.w3.org/2000/svg" viewBox="0 0 208.52 83.66"><defs><linearGradient id="a" x1="0%" x2="0%" y1="0%" y2="100%"><stop offset="0%" stop-color="#08aeea"/><stop offset="100%" stop-color="#2af598"/></linearGradient></defs><path fill="url(#a)" d="M220.37 148.31v18.95h-5.58v-18.95h-2.38v-5.2h2.38v-8.86h5.58v8.85h4.34v5.21zm-11.16-4.17v7.42q-1.9-2.33-3.42-3.2-1.49-.9-3.5-.9-3.15 0-5.23 2.22-2.09 2.2-2.09 5.53 0 3.4 2.01 5.58 2.04 2.18 5.19 2.18 2 0 3.54-.87 1.5-.84 3.5-3.27v7.37q-3.4 1.76-6.8 1.76-5.6 0-9.37-3.62-3.77-3.65-3.77-9.06 0-5.4 3.82-9.13 3.82-3.72 9.37-3.72 3.58 0 6.75 1.71zm-24.88 12.36h-17.31q.22 2.97 1.93 4.73 1.72 1.74 4.4 1.74 2.08 0 3.44-1 1.34-.98 3.05-3.66l4.72 2.63q-1.1 1.86-2.31 3.2-1.22 1.31-2.6 2.18-1.4.84-3 1.24-1.62.4-3.5.4-5.41 0-8.69-3.48-3.27-3.5-3.27-9.27 0-5.73 3.17-9.28 3.2-3.5 8.49-3.5 5.33 0 8.43 3.4 3.08 3.37 3.08 9.35zm-5.73-4.57q-1.16-4.46-5.63-4.46-1.02 0-1.9.32-.9.3-1.65.9-.71.56-1.24 1.38-.52.82-.79 1.86zm-24.25-3.62v18.95h-5.6v-18.95h-1.99v-5.2h1.99v-9.33q0-4.57 1.58-6.45 2.19-2.63 6.35-2.63 1.5 0 3.75.87v5.7l-.57-.3q-1.81-.91-2.98-.91-1.49 0-2 1.06-.53 1.04-.53 4.02v7.96h6.08v5.21zm-28.63-5.2h5.58v2.15q1.54-1.61 2.73-2.2 1.21-.63 2.88-.63 2.2 0 4.61 1.44l-2.56 5.11q-1.58-1.14-3.1-1.14-4.56 0-4.56 6.9v12.52h-5.58zm-5.55 13.39h-17.31q.22 2.97 1.93 4.73 1.71 1.74 4.4 1.74 2.08 0 3.44-1 1.34-.98 3.05-3.66l4.71 2.63q-1.09 1.86-2.3 3.2-1.22 1.31-2.6 2.18-1.4.84-3 1.24-1.62.4-3.5.4-5.41 0-8.69-3.48-3.27-3.5-3.27-9.27 0-5.73 3.17-9.28 3.2-3.5 8.49-3.5 5.33 0 8.43 3.4 3.08 3.37 3.08 9.35zm-5.73-4.57q-1.16-4.46-5.63-4.46-1.02 0-1.91.32-.9.3-1.64.9-.72.56-1.24 1.38-.52.82-.8 1.86zM73.3 180.41h-5.58v-37.3h5.58v2.62q3.3-3.3 7.5-3.3 4.98 0 8.2 3.67 3.28 3.65 3.28 9.2 0 5.44-3.25 9.06-3.23 3.6-8.14 3.6-4.24 0-7.59-3.4zm13.27-25.08q0-3.47-1.88-5.65-1.91-2.21-4.82-2.21-3.07 0-4.98 2.13-1.91 2.13-1.91 5.6 0 3.4 1.9 5.61 1.9 2.16 4.97 2.16 2.9 0 4.79-2.18 1.93-2.18 1.93-5.46zM29.05 143.1h5.58v2.23q1.61-1.68 2.75-2.28 1.22-.62 3.05-.62 4.1 0 6.48 3.57 2.63-3.57 7.12-3.57 8.16 0 8.16 9.9v14.93h-5.61v-13.42q0-3.47-.84-4.9-.87-1.47-2.86-1.47-2.3 0-3.37 1.73-1.04 1.74-1.04 5.59v12.47h-5.6v-13.34q0-6.45-3.73-6.45-2.35 0-3.45 1.76-1.06 1.76-1.06 5.56v12.47h-5.58zm-5 0v24.16h-5.59V143.1zm100.51-26v18.94h-5.58V117.1h-2.38v-5.2h2.38v-8.86h5.58v8.85h4.34v5.21zm-12.35-1.1l-4.62 2.46q-1.09-2.24-2.7-2.24-.77 0-1.31.52-.55.5-.55 1.3 0 1.38 3.23 2.75 4.44 1.9 5.97 3.52 1.54 1.61 1.54 4.34 0 3.5-2.58 5.85-2.5 2.24-6.05 2.24-6.08 0-8.6-5.93l4.75-2.21q1 1.74 1.52 2.2 1.01.95 2.43.95 2.83 0 2.83-2.58 0-1.49-2.19-2.78l-1.68-.82-1.71-.81q-2.44-1.2-3.43-2.39-1.26-1.5-1.26-3.89 0-3.15 2.16-5.2 2.2-2.07 5.35-2.07 4.64 0 6.9 4.79zm-26.7-4.12h5.61v24.16h-5.6v-2.53q-3.45 3.23-7.42 3.23-5 0-8.28-3.63-3.25-3.7-3.25-9.22 0-5.43 3.25-9.06 3.25-3.62 8.13-3.62 4.22 0 7.57 3.47zm-13.24 12q0 3.48 1.86 5.66 1.91 2.21 4.82 2.21 3.1 0 5-2.13 1.92-2.21 1.92-5.6 0-3.4-1.91-5.61-1.91-2.16-4.96-2.16-2.88 0-4.82 2.18-1.9 2.2-1.9 5.46zm-10.64 1.4H44.32q.22 2.97 1.93 4.73 1.71 1.74 4.4 1.74 2.08 0 3.44-1 1.34-.98 3.05-3.66l4.72 2.63q-1.1 1.86-2.31 3.2-1.22 1.31-2.6 2.18-1.4.84-3 1.24-1.62.4-3.5.4-5.41 0-8.69-3.48-3.27-3.5-3.27-9.27 0-5.73 3.17-9.28 3.2-3.5 8.49-3.5 5.33 0 8.43 3.4 3.08 3.37 3.08 9.35zm-5.73-4.57q-1.16-4.46-5.63-4.46-1.02 0-1.9.32-.9.3-1.65.9-.72.56-1.24 1.38-.52.82-.79 1.86zM18.47 97.62v31.54a5 5 0 107.04 6.76h10v-5.43H25.4a6.97 6.97 0 00-1.34-1.42V97.65zm2.8 32.68a3 3 0 110 6 3 3 0 010-6z" aria-label="Least imperfect Pte Ltd" transform="translate(-16.26 -97.62)"/></svg>